<?xml version="1.0" encoding="UTF-8"?>
<svg xmlns="http://www.w3.org/2000/svg" width="760" height="170" viewBox="0 0 760 170" role="img" aria-label="LGcode">
  <title>LGcode</title>
  <defs>
    <linearGradient id="lgc-bg" x1="0%" y1="0%" x2="0%" y2="100%">
      <stop offset="0%" stop-color="#00b96b"/>
      <stop offset="100%" stop-color="#00a65c"/>
    </linearGradient>
  </defs>
  <g transform="translate(85, 85)">
    <rect x="-75" y="-75" width="150" height="150" rx="36" ry="36" fill="url(#lgc-bg)"/>
    <g fill="none" stroke="#0f172a" stroke-width="14" stroke-linecap="round" stroke-linejoin="round">
      <path d="M0 38 C0 12, -12 2, -30 -10"/>
      <path d="M0 38 C0 12, 12 2, 30 -10"/>
      <path d="M0 38 C0 12, 0 -2, 0 -30"/>
    </g>
    <circle cx="-30" cy="-10" r="12" fill="none" stroke="#0f172a" stroke-width="11"/>
    <circle cx="30" cy="-10" r="12" fill="none" stroke="#0f172a" stroke-width="11"/>
    <circle cx="0" cy="-30" r="12" fill="none" stroke="#0f172a" stroke-width="11"/>
    <circle cx="-30" cy="-10" r="5" fill="#00b96b"/>
    <circle cx="30" cy="-10" r="5" fill="#00b96b"/>
    <circle cx="0" cy="-30" r="5" fill="#00b96b"/>
  </g>
  <text x="170" y="102" font-family="ui-monospace, SFMono-Regular, 'Cascadia Code', Menlo, Consolas, 'DejaVu Sans Mono', monospace" font-size="68" font-weight="800" fill="#f4f5f7" letter-spacing="6">LGCODE</text>
  <text x="172" y="136" font-family="ui-monospace, SFMono-Regular, 'Cascadia Code', Menlo, Consolas, 'DejaVu Sans Mono', monospace" font-size="15" fill="#64748b" letter-spacing="0.5">DeepSeek-native agent framework  ·  cache-first loop  ·  Ink TUI</text>
</svg>
